<?xml version="1.0" encoding="utf-8"?><svg xmlns="http://www.w3.org/2000/svg" xmlns:xlink="http://www.w3.org/1999/xlink"><symbol viewBox="0 0 18 18" id="Cart" xmlns="http://www.w3.org/2000/svg">
    <path d="M18 1.81799L15.662 8.43799H15.585C15.4998 8.60481 15.3714 8.74563 15.213 8.84558C15.0546 8.94554 14.8723 9.00092 14.6851 9.00598H7.37305L7.65295 10.13H14.626C14.9243 10.13 15.2105 10.2486 15.4215 10.4595C15.6325 10.6705 15.751 10.9566 15.751 11.255C15.751 11.5534 15.6325 11.8395 15.4215 12.0505C15.2105 12.2615 14.9243 12.38 14.626 12.38H6.75598C6.45779 12.3797 6.17194 12.2611 5.96118 12.0502C5.75042 11.8392 5.63196 11.5532 5.63196 11.255C5.63876 11.192 5.65113 11.1298 5.66895 11.069L3.46899 2.255H2.81799V2.08301C2.64992 2.19067 2.45552 2.25016 2.25598 2.255H1.13196C0.833589 2.255 0.547526 2.13645 0.336548 1.92548C0.125569 1.7145 0.00695801 1.42837 0.00695801 1.13C0.00695801 0.831636 0.125569 0.545512 0.336548 0.334534C0.547526 0.123555 0.833589 0.00500488 1.13196 0.00500488H2.25598C2.45564 0.00999547 2.65009 0.0698219 2.81799 0.177979V0H16.8719C17.1701 0.000265063 17.4561 0.118884 17.6669 0.329834C17.8776 0.540784 17.996 0.826805 17.996 1.125C17.9911 1.37236 17.9031 1.61087 17.746 1.802L18 1.81799ZM5.68604 2.25L6.80798 6.75H14.041L15.63 2.25H5.68604ZM7.31396 14.625C7.6479 14.6246 7.97447 14.7233 8.25232 14.9085C8.53017 15.0937 8.74681 15.3572 8.87488 15.6656C9.00294 15.9741 9.03671 16.3135 8.9718 16.6411C8.9069 16.9687 8.74625 17.2696 8.51025 17.5059C8.27426 17.7421 7.97349 17.9032 7.646 17.9684C7.3185 18.0337 6.97909 18.0004 6.67053 17.8727C6.36197 17.745 6.09817 17.5287 5.9126 17.251C5.72703 16.9734 5.62805 16.6469 5.62805 16.313C5.62792 16.0914 5.67132 15.8721 5.75598 15.6674C5.84064 15.4626 5.9649 15.2766 6.12146 15.1198C6.27802 14.9631 6.46383 14.8387 6.66846 14.7538C6.87308 14.6689 7.09242 14.6251 7.31396 14.625ZM14.0601 14.625C14.394 14.6246 14.7204 14.7233 14.9983 14.9085C15.2761 15.0937 15.4929 15.3572 15.621 15.6656C15.749 15.9741 15.7827 16.3135 15.7178 16.6411C15.6529 16.9687 15.4923 17.2696 15.2563 17.5059C15.0204 17.7421 14.7196 17.9032 14.3921 17.9684C14.0646 18.0337 13.7251 18.0004 13.4165 17.8727C13.1079 17.745 12.8441 17.5287 12.6586 17.251C12.473 16.9734 12.374 16.6469 12.374 16.313C12.3739 16.0914 12.4174 15.8721 12.5021 15.6674C12.5867 15.4626 12.7109 15.2766 12.8674 15.1198C13.024 14.9631 13.2098 14.8387 13.4144 14.7538C13.6191 14.6689 13.8385 14.6251 14.0601 14.625Z"/>
</symbol><symbol viewBox="0 0 18 18" id="Heart" xmlns="http://www.w3.org/2000/svg">
    <path d="M9.01007 18C18.0101 13.091 18.0101 6.54602 18.0101 6.54602C18.0101 4.91002 18.0101 0.818971 13.5101 0.00097145C9.01007 -0.114029 9.01007 3.27301 9.01007 3.27301C9.01007 3.27301 9.01007 0.00097145 4.51007 0.00097145C0.0100679 0.818971 0.0100681 4.91002 0.0100681 6.54602C0.00806808 6.54602 0.00806808 13.091 9.01007 18ZM5.81012 2.29998C6.44619 2.5039 7.02769 2.84956 7.5108 3.31085C7.99391 3.77213 8.36597 4.33703 8.59906 4.96301C8.85006 5.01801 9.01007 5.06298 9.01007 5.06298L8.69 5.169C8.855 5.546 8.94001 5.78098 8.97601 5.70098V5.36999C8.97557 5.44669 8.98165 5.5233 8.99408 5.59899C8.99408 5.53999 9.00103 5.464 9.00103 5.354V5.62499C9.13103 6.06899 9.84007 2.87797 12.2131 2.30297C16.3701 1.76597 15.813 5.62 15.657 7.289C15.674 7.395 15.386 11.765 9.01104 15.138V15.187C2.76104 11.823 2.37303 7.39598 2.36603 7.28698V7.276L2.26104 7.31097C2.26411 7.12959 2.28351 6.94888 2.31903 6.77099C2.14803 4.94299 2.03502 1.81398 5.80902 2.29998H5.81012Z"/>
</symbol><symbol viewBox="0 0 18 19" id="User" xmlns="http://www.w3.org/2000/svg">
    <path d="M15.751 19H2.26002C1.86606 18.9995 1.47912 18.8956 1.13789 18.6987C0.79666 18.5018 0.513095 18.2188 0.315503 17.878C0.117911 17.5372 0.0132261 17.1504 0.0119143 16.7565C0.0106026 16.3625 0.112678 15.9751 0.307996 15.633C0.122364 15.284 0.0239109 14.8953 0.0210086 14.5C0.0210086 12.724 2.12101 11.109 5.36201 10.386C4.80713 9.62117 4.50951 8.6999 4.51204 7.755V5.5C4.50315 4.90413 4.61279 4.31243 4.83467 3.75934C5.05655 3.20625 5.38622 2.70284 5.80446 2.27832C6.22269 1.8538 6.72117 1.51667 7.27089 1.28656C7.8206 1.05645 8.41055 0.937927 9.00648 0.937927C9.60242 0.937927 10.1924 1.05645 10.7421 1.28656C11.2919 1.51667 11.7904 1.8538 12.2086 2.27832C12.6269 2.70284 12.9565 3.20625 13.1784 3.75934C13.4002 4.31243 13.5099 4.90413 13.501 5.5V7.76001C13.5032 8.70409 13.206 9.62453 12.652 10.389C15.901 11.11 18.001 12.726 18.001 14.505C17.9976 14.9034 17.8974 15.295 17.709 15.646C17.9025 15.9883 18.003 16.3753 18.0005 16.7685C17.998 17.1617 17.8925 17.5474 17.6946 17.8871C17.4966 18.2269 17.2131 18.5089 16.8723 18.705C16.5315 18.9011 16.1452 19.0046 15.752 19.005L15.751 19ZM9.01002 12.25C5.28802 12.25 2.26002 13.259 2.26002 14.5V16.75H15.749V14.628C15.7563 14.5857 15.76 14.5429 15.76 14.5C15.76 13.259 12.732 12.25 9.01002 12.25ZM9.01002 3.25C8.41353 3.25079 7.84166 3.48813 7.41987 3.90991C6.99809 4.3317 6.76082 4.90351 6.76002 5.5V7.75C6.76002 8.34674 6.99706 8.91905 7.41902 9.341C7.84098 9.76296 8.41329 10 9.01002 10C9.60676 10 10.1791 9.76296 10.601 9.341C11.023 8.91905 11.26 8.34674 11.26 7.75V5.5C11.2592 4.90351 11.0219 4.3317 10.6001 3.90991C10.1783 3.48813 9.60652 3.25079 9.01002 3.25Z"/>
</symbol><symbol viewBox="0 0 11 7" id="arrow" xmlns="http://www.w3.org/2000/svg">
    <path d="M5.30896 6.71002L1.25598 2.61902C1.07698 2.43735 0.976685 2.19254 0.976685 1.9375C0.976685 1.68246 1.07698 1.43765 1.25598 1.25598C1.34428 1.16636 1.4495 1.09521 1.56555 1.04663C1.6816 0.998056 1.8062 0.973022 1.93201 0.973022C2.05782 0.973022 2.18241 0.998056 2.29846 1.04663C2.41451 1.09521 2.51973 1.16636 2.60803 1.25598L5.98401 4.66498L9.36206 1.25598C9.45027 1.16639 9.55542 1.09525 9.67139 1.04669C9.78736 0.99813 9.91175 0.973145 10.0375 0.973145C10.1632 0.973145 10.2877 0.99813 10.4037 1.04669C10.5197 1.09525 10.6248 1.16639 10.713 1.25598C10.892 1.43765 10.9923 1.68246 10.9923 1.9375C10.9923 2.19254 10.892 2.43735 10.713 2.61902L6.65906 6.71002C6.57071 6.79937 6.46544 6.87029 6.34949 6.9187C6.23354 6.96711 6.10917 6.992 5.98352 6.992C5.85787 6.992 5.7335 6.96711 5.61755 6.9187C5.5016 6.87029 5.39633 6.79937 5.30798 6.71002H5.30896Z"/>
</symbol><symbol viewBox="0 0 24 24" id="heart-line" xmlns="http://www.w3.org/2000/svg">
    <path d="M12.001 4.52853C14.35 2.42 17.98 2.49 20.2426 4.75736C22.5053 7.02472 22.583 10.637 20.4786 12.993L11.9999 21.485L3.52138 12.993C1.41705 10.637 1.49571 7.01901 3.75736 4.75736C6.02157 2.49315 9.64519 2.41687 12.001 4.52853ZM18.827 6.1701C17.3279 4.66794 14.9076 4.60701 13.337 6.01687L12.0019 7.21524L10.6661 6.01781C9.09098 4.60597 6.67506 4.66808 5.17157 6.17157C3.68183 7.66131 3.60704 10.0473 4.97993 11.6232L11.9999 18.6543L19.0201 11.6232C20.3935 10.0467 20.319 7.66525 18.827 6.1701Z"/>
</symbol><symbol viewBox="0 0 17 18" id="icon" xmlns="http://www.w3.org/2000/svg">
    <path d="M0.265 16.395L4.454 11.939C3.37306 10.6223 2.7837 8.97062 2.78697 7.26704C2.81827 5.86812 3.26171 4.50953 4.06172 3.36152C4.86174 2.21351 5.98276 1.32713 7.28432 0.813425C8.58588 0.299721 10.0101 0.181546 11.3785 0.473704C12.747 0.765861 13.9987 1.45537 14.977 2.45582C15.9553 3.45627 16.6166 4.72316 16.878 6.09779C17.1395 7.47241 16.9894 8.89363 16.4467 10.1834C15.904 11.4731 14.9927 12.5739 13.827 13.348C12.6614 14.1221 11.2933 14.535 9.894 14.535C8.43177 14.5372 7.00633 14.0766 5.82198 13.219L1.601 17.708C1.51764 17.7975 1.41712 17.8693 1.30547 17.9193C1.19381 17.9692 1.07329 17.9961 0.951005 17.9985C0.828723 18.001 0.707193 17.9788 0.593644 17.9334C0.480095 17.8879 0.376836 17.8201 0.289994 17.734C0.113363 17.5574 0.0120632 17.3192 0.00740099 17.0695C0.00273876 16.8198 0.0950831 16.5781 0.265 16.395ZM9.894 1.89503C8.82649 1.87118 7.77607 2.16589 6.87682 2.74165C5.97757 3.3174 5.27024 4.14807 4.84514 5.12757C4.42004 6.10708 4.29645 7.19103 4.4901 8.2411C4.68375 9.29117 5.18586 10.2597 5.93239 11.0231C6.67892 11.7866 7.63597 12.3103 8.68144 12.5274C9.72691 12.7445 10.8134 12.6453 11.8022 12.2422C12.791 11.8391 13.6372 11.1506 14.233 10.2645C14.8287 9.37834 15.1469 8.33481 15.147 7.26704C15.1598 5.85959 14.6142 4.5044 13.6298 3.49842C12.6454 2.49245 11.3024 1.91771 9.89497 1.90003L9.894 1.89503Z"/>
</symbol><symbol viewBox="0 0 24 24" id="id-card-line" xmlns="http://www.w3.org/2000/svg">
    <path d="M3 6H21V18H3V6ZM2 4C1.44772 4 1 4.44772 1 5V19C1 19.5523 1.44772 20 2 20H22C22.5523 20 23 19.5523 23 19V5C23 4.44772 22.5523 4 22 4H2ZM13 8H19V10H13V8ZM18 12H13V14H18V12ZM10.5 10C10.5 11.3807 9.38071 12.5 8 12.5C6.61929 12.5 5.5 11.3807 5.5 10C5.5 8.61929 6.61929 7.5 8 7.5C9.38071 7.5 10.5 8.61929 10.5 10ZM8 13.5C6.067 13.5 4.5 15.067 4.5 17H11.5C11.5 15.067 9.933 13.5 8 13.5Z"/>
</symbol><symbol viewBox="0 0 24 24" id="search" xmlns="http://www.w3.org/2000/svg">
    <path d="M18.5 18.5L22 22M21 11.5C21 6.25329 16.7467 2 11.5 2C6.25329 2 2 6.25329 2 11.5C2 16.7467 6.25329 21 11.5 21C16.7467 21 21 16.7467 21 11.5Z" stroke-width="1.5" stroke-linecap="round" stroke-linejoin="round"/>
</symbol><symbol viewBox="0 0 24 24" id="search-line" xmlns="http://www.w3.org/2000/svg">
    <path d="M18.031 16.6168L22.3137 20.8995L20.8995 22.3137L16.6168 18.031C15.0769 19.263 13.124 20 11 20C6.032 20 2 15.968 2 11C2 6.032 6.032 2 11 2C15.968 2 20 6.032 20 11C20 13.124 19.263 15.0769 18.031 16.6168ZM16.0247 15.8748C17.2475 14.6146 18 12.8956 18 11C18 7.1325 14.8675 4 11 4C7.1325 4 4 7.1325 4 11C4 14.8675 7.1325 18 11 18C12.8956 18 14.6146 17.2475 15.8748 16.0247L16.0247 15.8748Z"/>
</symbol><symbol viewBox="0 0 18 10" id="sidelist" xmlns="http://www.w3.org/2000/svg">
    <path d="M1 10C0.734784 10 0.480444 9.89463 0.292908 9.70709C0.105371 9.51956 0 9.26522 0 9C0 8.73478 0.105371 8.48044 0.292908 8.29291C0.480444 8.10537 0.734784 8 1 8H11C11.2652 8 11.5196 8.10537 11.7071 8.29291C11.8946 8.48044 12 8.73478 12 9C12 9.26522 11.8946 9.51956 11.7071 9.70709C11.5196 9.89463 11.2652 10 11 10H1ZM1 2C0.734784 2 0.480444 1.89463 0.292908 1.70709C0.105371 1.51956 0 1.26522 0 1C0 0.734784 0.105371 0.480444 0.292908 0.292908C0.480444 0.105371 0.734784 0 1 0H17C17.2652 0 17.5196 0.105371 17.7071 0.292908C17.8946 0.480444 18 0.734784 18 1C18 1.26522 17.8946 1.51956 17.7071 1.70709C17.5196 1.89463 17.2652 2 17 2H1Z"/>
</symbol><symbol viewBox="0 0 24 24" id="user-star-line" xmlns="http://www.w3.org/2000/svg">
    <path d="M12 14V16C8.68629 16 6 18.6863 6 22H4C4 17.5817 7.58172 14 12 14ZM12 13C8.685 13 6 10.315 6 7C6 3.685 8.685 1 12 1C15.315 1 18 3.685 18 7C18 10.315 15.315 13 12 13ZM12 11C14.21 11 16 9.21 16 7C16 4.79 14.21 3 12 3C9.79 3 8 4.79 8 7C8 9.21 9.79 11 12 11ZM18 21.5L15.0611 23.0451L15.6224 19.7725L13.2447 17.4549L16.5305 16.9775L18 14L19.4695 16.9775L22.7553 17.4549L20.3776 19.7725L20.9389 23.0451L18 21.5Z"/>
</symbol><symbol id="website" enable-background="new 0 0 497 497" viewBox="0 0 497 497" xmlns="http://www.w3.org/2000/svg">
    <g>
        <path d="m497 128.5v312c0 11.046-8.954 20-20 20h-457c-11.046 0-20-8.954-20-20v-312z"/>
        <g>
            <path d="m290.498 294.5c0-23.196-18.804-42-42-42-7.031 0-13.659 1.728-19.482 4.782-13.386 7.021-19.327 21.053-19.327 37.218 0 23.196 15.613 36.457 38.809 36.457 16.214 0 30.282-3.645 37.282-17.099 3.014-5.792 4.718-12.376 4.718-19.358z"/>
            <path d="m286.468 312.47c-6.73 14.21-21.2 24.03-37.97 24.03-23.2 0-42-18.8-42-42 0-16.77 9.82-31.24 24.03-37.97-2.59 5.45-4.03 11.54-4.03 17.97 0 23.2 18.8 42 42 42 6.43 0 12.52-1.44 17.97-4.03z"/>
        </g>
        <g>
            <path d="m429.496 294.5c0-23.196-18.804-42-42-42-7.031 0-13.659 1.728-19.482 4.782-13.386 7.021-19.327 21.053-19.327 37.218 0 23.196 15.613 36.457 38.809 36.457 16.214 0 30.282-3.645 37.282-17.099 3.014-5.792 4.718-12.376 4.718-19.358z"/>
            <path d="m425.466 312.47c-6.73 14.21-21.2 24.03-37.97 24.03-23.2 0-42-18.8-42-42 0-16.77 9.82-31.24 24.03-37.97-2.59 5.45-4.03 11.54-4.03 17.97 0 23.2 18.8 42 42 42 6.43 0 12.52-1.44 17.97-4.03z"/>
        </g>
        <path d="m497 148.5v-20l-276.011-12.798-220.989 12.798v20 292c0 11.046 8.954 20 20 20h15c-8.28 0-15-6.72-15-15v-291c0-3.314 2.686-6 6-6z"/>
        <g>
            <path d="m497 56.5v72.5h-497v-72.5c0-11.046 8.954-20 20-20h457c11.046 0 20 8.954 20 20z"/>
            <g>
                <path d="m227.758 108.5c-8.255 0-14.947-6.716-14.947-15s6.692-15 14.947-15h208.315c8.255 0 14.947 6.716 14.947 15s-6.692 15-14.947 15z"/>
                <ellipse cx="160.869" cy="93.5" rx="14.947" ry="15"/>
                <path d="m171.361 104.184 12.874-12.869-13.139 1.179z"/>
                <path d="m150.592 82.608 12.562-12.516-2.693 10.408z"/>
                <ellipse cx="98.034" cy="93.5" rx="14.947" ry="15"/>
                <path d="m108.553 104.157 12.382-12.499-12.674.836z"/>
                <path d="m87.757 82.608 12.371-12.459-2.502 10.351z"/>
                <ellipse cx="32.947" cy="93.5" rx="14.947" ry="15"/>
                <path d="m43.769 103.846 12.721-13.186-13.139 1.381z"/>
                <path d="m22.67 82.608 11.622-12.038-1.753 9.93z"/>
            </g>
            <ellipse cx="173.849" cy="80.5" rx="14.947" ry="15"/>
            <path d="m217.514 82.577 12.971-12.991-3.025 14.276z"/>
            <path d="m446.83 103.915 13.149-13.179-10.185 3.381z"/>
            <ellipse cx="110.946" cy="80.5" rx="14.947" ry="15"/>
            <ellipse cx="45.495" cy="80.5" rx="14.947" ry="15"/>
            <path d="m240.737 95.5c-8.255 0-14.947-6.716-14.947-15s6.692-15 14.947-15h208.315c8.255 0 14.947 6.716 14.947 15s-6.692 15-14.947 15z"/>
        </g>
        <path d="m135.893 215 226.628 2c5.523 0 10-4.477 10-10l3.479-7v-30c0-5.523-4.477-10-10-10h-224l-6.107 5c-5.523 0-10 4.477-10 10v30c0 5.523 4.477 10 10 10z"/>
        <path d="m376 200v10c0 5.523-4.477 10-10 10h-234c-5.523 0-10-4.477-10-10v-40c0-5.523 4.477-10 10-10h10v33c0 3.866 3.134 7 7 7z"/>
        <g>
            <path d="m151.5 294.5c0-23.196-18.804-42-42-42-7.031 0-13.659 1.728-19.482 4.782-13.386 7.021-19.327 21.053-19.327 37.218 0 23.196 15.613 36.457 38.809 36.457 16.214 0 30.282-3.645 37.282-17.099 3.014-5.792 4.718-12.376 4.718-19.358z"/>
            <path d="m147.47 312.47c-6.73 14.21-21.2 24.03-37.97 24.03-23.2 0-42-18.8-42-42 0-16.77 9.82-31.24 24.03-37.97-2.59 5.45-4.03 11.54-4.03 17.97 0 23.2 18.8 42 42 42 6.43 0 12.52-1.44 17.97-4.03z"/>
        </g>
        <g>
            <g>
                <path d="m149.5 374h-70c-4.142 0-7.5-3.358-7.5-7.5s3.358-7.5 7.5-7.5h70c4.142 0 7.5 3.358 7.5 7.5s-3.358 7.5-7.5 7.5z"/>
            </g>
            <g>
                <path d="m149.5 404h-80c-4.142 0-7.5-3.358-7.5-7.5s3.358-7.5 7.5-7.5h80c4.142 0 7.5 3.358 7.5 7.5s-3.358 7.5-7.5 7.5z"/>
            </g>
            <g>
                <path d="m149.5 434h-80c-4.142 0-7.5-3.358-7.5-7.5s3.358-7.5 7.5-7.5h80c4.142 0 7.5 3.358 7.5 7.5s-3.358 7.5-7.5 7.5z"/>
            </g>
        </g>
        <g>
            <g>
                <path d="m288.5 374h-70c-4.142 0-7.5-3.358-7.5-7.5s3.358-7.5 7.5-7.5h70c4.143 0 7.5 3.358 7.5 7.5s-3.357 7.5-7.5 7.5z"/>
            </g>
            <g>
                <path d="m288.5 404h-80c-4.142 0-7.5-3.358-7.5-7.5s3.358-7.5 7.5-7.5h80c4.143 0 7.5 3.358 7.5 7.5s-3.357 7.5-7.5 7.5z"/>
            </g>
            <g>
                <path d="m288.5 434h-80c-4.142 0-7.5-3.358-7.5-7.5s3.358-7.5 7.5-7.5h80c4.143 0 7.5 3.358 7.5 7.5s-3.357 7.5-7.5 7.5z"/>
            </g>
        </g>
        <g>
            <g>
                <path d="m427.5 374h-70c-4.143 0-7.5-3.358-7.5-7.5s3.357-7.5 7.5-7.5h70c4.143 0 7.5 3.358 7.5 7.5s-3.357 7.5-7.5 7.5z"/>
            </g>
            <g>
                <path d="m427.5 404h-80c-4.143 0-7.5-3.358-7.5-7.5s3.357-7.5 7.5-7.5h80c4.143 0 7.5 3.358 7.5 7.5s-3.357 7.5-7.5 7.5z"/>
            </g>
            <g>
                <path d="m427.5 434h-80c-4.143 0-7.5-3.358-7.5-7.5s3.357-7.5 7.5-7.5h80c4.143 0 7.5 3.358 7.5 7.5s-3.357 7.5-7.5 7.5z"/>
            </g>
        </g>
    </g>
</symbol></svg>